<svg width="22" height="20" viewBox="0 0 22 20" fill="none" xmlns="http://www.w3.org/2000/svg">
<path d="M18.5 20C18.8978 20 19.2794 19.842 19.5607 19.5607C19.842 19.2794 20 18.8978 20 18.5C20 18.1022 19.842 17.7206 19.5607 17.4393C19.2794 17.158 18.8978 17 18.5 17C18.1022 17 17.7206 17.158 17.4393 17.4393C17.158 17.7206 17 18.1022 17 18.5C17 18.8978 17.158 19.2794 17.4393 19.5607C17.7206 19.842 18.1022 20 18.5 20ZM8.5 20C8.89782 20 9.27936 19.842 9.56066 19.5607C9.84196 19.2794 10 18.8978 10 18.5C10 18.1022 9.84196 17.7206 9.56066 17.4393C9.27936 17.158 8.89782 17 8.5 17C8.10218 17 7.72064 17.158 7.43934 17.4393C7.15804 17.7206 7 18.1022 7 18.5C7 18.8978 7.15804 19.2794 7.43934 19.5607C7.72064 19.842 8.10218 20 8.5 20Z" fill="#333333"/>
<path d="M4 3H21L19 14M4 3L6 14H19M4 3C3.833 2.333 3 1 1 1M19 14H4.23C2.446 14 1.5 14.781 1.5 16C1.5 17.219 2.446 18 4.23 18H18.5" stroke="#333333" stroke-linecap="round" stroke-linejoin="round"/>
</svg>
