<svg width="22" height="22" viewBox="0 0 22 22" fill="none" xmlns="http://www.w3.org/2000/svg">
<path d="M1 18.2083C1 16.9044 1.518 15.6538 2.44006 14.7317C3.36211 13.8097 4.61269 13.2917 5.91667 13.2917H15.75C17.054 13.2917 18.3046 13.8097 19.2266 14.7317C20.1487 15.6538 20.6667 16.9044 20.6667 18.2083C20.6667 18.8603 20.4077 19.4856 19.9466 19.9466C19.4856 20.4077 18.8603 20.6667 18.2083 20.6667H3.45833C2.80634 20.6667 2.18106 20.4077 1.72003 19.9466C1.259 19.4856 1 18.8603 1 18.2083Z" stroke="#333333" stroke-linejoin="round"/>
<path d="M10.8334 8.375C12.8699 8.375 14.5209 6.72405 14.5209 4.6875C14.5209 2.65095 12.8699 1 10.8334 1C8.79682 1 7.14587 2.65095 7.14587 4.6875C7.14587 6.72405 8.79682 8.375 10.8334 8.375Z" stroke="#333333"/>
</svg>
