<svg width="54" height="54" viewBox="0 0 54 54" fill="none" xmlns="http://www.w3.org/2000/svg">
<g filter="url(#filter0_d_192_64)">
<rect x="3.5" y="3.5" width="43" height="43" rx="4.5" fill="white" stroke="black"/>
<path d="M13.7707 13.4794C14.202 13.048 14.8965 13.0424 15.321 13.4669L35.2795 33.4254L35.2752 17.6553C35.271 17.5089 35.2962 17.3626 35.3494 17.2252C35.4025 17.0878 35.4826 16.9619 35.5847 16.8552C35.6868 16.7484 35.809 16.6629 35.944 16.6036C36.0789 16.5443 36.224 16.5125 36.3706 16.5101C36.5171 16.5077 36.6622 16.5347 36.7973 16.5895C36.9323 16.6443 37.0546 16.7258 37.1568 16.8292C37.259 16.9325 37.3391 17.0557 37.3924 17.1914C37.4456 17.327 37.471 17.4725 37.4669 17.619L37.4727 36.0524L37.473 36.0853C37.4704 36.2473 37.4319 36.4074 37.3603 36.5539C37.2887 36.7004 37.1857 36.8297 37.0588 36.9325C36.8514 37.1009 36.5911 37.1893 36.3263 37.1815L17.9109 37.175C17.7644 37.1791 17.619 37.1537 17.4833 37.1004C17.3476 37.0472 17.2245 36.9671 17.1211 36.8648C17.0177 36.7626 16.9362 36.6404 16.8814 36.5054C16.8266 36.3703 16.7996 36.2252 16.802 36.0787C16.8045 35.9321 16.8362 35.787 16.8955 35.652C16.9548 35.517 17.0403 35.3949 17.1471 35.2927C17.2539 35.1906 17.3797 35.1106 17.5171 35.0575C17.6545 35.0043 17.8008 34.9791 17.9472 34.9833L33.7173 34.9876L13.7588 15.0291C13.3343 14.6046 13.3387 13.9113 13.7707 13.4794Z" fill="black"/>
</g>
<defs>
<filter id="filter0_d_192_64" x="0" y="0" width="54" height="54" filterUnits="userSpaceOnUse" color-interpolation-filters="sRGB">
<feFlood flood-opacity="0" result="BackgroundImageFix"/>
<feColorMatrix in="SourceAlpha" type="matrix" values="0 0 0 0 0 0 0 0 0 0 0 0 0 0 0 0 0 0 127 0" result="hardAlpha"/>
<feOffset dx="2" dy="2"/>
<feGaussianBlur stdDeviation="2.5"/>
<feComposite in2="hardAlpha" operator="out"/>
<feColorMatrix type="matrix" values="0 0 0 0 0 0 0 0 0 0 0 0 0 0 0 0 0 0 0.25 0"/>
<feBlend mode="normal" in2="BackgroundImageFix" result="effect1_dropShadow_192_64"/>
<feBlend mode="normal" in="SourceGraphic" in2="effect1_dropShadow_192_64" result="shape"/>
</filter>
</defs>
</svg>
