<svg width="25" height="25" viewBox="0 0 25 25" fill="none" xmlns="http://www.w3.org/2000/svg">
<path d="M0.770652 0.479352C1.20199 0.0480113 1.89654 0.0424122 2.32098 0.466853L22.2795 20.4254L22.2752 4.65529C22.271 4.50887 22.2962 4.36262 22.3494 4.22519C22.4025 4.08776 22.4826 3.96194 22.5847 3.85517C22.6868 3.7484 22.809 3.66286 22.944 3.60359C23.0789 3.54432 23.224 3.51253 23.3706 3.5101C23.5171 3.50768 23.6622 3.53466 23.7973 3.58946C23.9323 3.64426 24.0546 3.72577 24.1568 3.82915C24.259 3.93254 24.3391 4.05571 24.3924 4.19138C24.4456 4.32704 24.471 4.47246 24.4669 4.61902L24.4727 23.0524L24.473 23.0853C24.4704 23.2473 24.4319 23.4074 24.3603 23.5539C24.2887 23.7004 24.1857 23.8297 24.0588 23.9325C23.8514 24.1009 23.5911 24.1893 23.3263 24.1815L4.91094 24.175C4.76438 24.1791 4.61897 24.1537 4.4833 24.1004C4.34763 24.0472 4.22446 23.9671 4.12108 23.8648C4.01769 23.7626 3.93619 23.6404 3.88139 23.5054C3.82659 23.3703 3.7996 23.2252 3.80203 23.0787C3.80446 22.9321 3.83624 22.787 3.89551 22.652C3.95478 22.517 4.04033 22.3949 4.1471 22.2927C4.25386 22.1906 4.37968 22.1106 4.51711 22.0575C4.65454 22.0043 4.80079 21.9791 4.94721 21.9833L20.7173 21.9876L0.758778 2.02905C0.334337 1.60461 0.338687 0.911317 0.770652 0.479352Z" fill="black"/>
</svg>
